:FULLY-SPECIFIED
:FORCE-ALL-JOINTS-BE-3DOF
:DEGREES
1
root 6.24314 16.836 -28.1378 9.0217 -2.52979 -3.05774
lfemur -20.3712 2.30257 -19.9954
ltibia 35.927 0 0
lfoot -38.654 3.93715 0
ltoes 38.9541 0 0
rfemur -19.4747 0.22019 19.5256
rtibia 36.0342 0 0
rfoot -30.3779 -10.4967 0
rtoes 21.4483 0 0
lowerback -2.05144 3.66971 -5.03766
upperback -2.66728 5.00355 3.49279
thorax -2.36397 2.67023 6.42441
lowerneck -9.84699 -2.36864 1.94815
upperneck -1.37933 -3.32542 -1.65382
head 1.16433 -1.69823 -0.975663
lclavicle -1.65488e-14 -3.69739e-14 0
lhumerus -41.7253 -10.8128 99.8312
lradius 34.5094 0 0
lwrist 2.17521 0 0
lhand -10.5949 9.65639 0
lfingers 7.12502 0 0
lthumb 15.4107 39.062 0
rclavicle -1.65488e-14 -3.69739e-14 0
rhumerus -43.273 -4.86223 -84.2703
rradius 40.4763 0 0
rwrist 9.89469 0 0
rhand -23.7965 -22.476 0
rfingers 7.12502 0 0
rthumb 2.67393 -52.439 0
2
root 6.24136 16.8386 -28.1339 9.05441 -2.50449 -3.03361
lfemur -20.3518 2.2751 -19.9848
ltibia 35.8422 -0 0
lfoot -38.5615 3.94778 0.000163823
ltoes 0 0 0
rfemur -19.3537 0.503479 19.5228
rtibia 0 0 0
rfoot -30.2643 -10.8295 -0.00630292
rtoes 0 0 0
lowerback 0 0 0
upperback 0 0 0
thorax 0 0 0
lowerneck 0 0 0
upperneck -1.42635 -3.2934 -1.58127
head 1.14931 -1.68089 -0.95393
lclavicle 0 0 0
lhumerus -41.7234 -10.8515 99.7143
lradius 34.5926 -0 0
lwrist 2.26159 0 0
lhand 0 0 0
lfingers 0 0 0
lthumb 0 0 0
rclavicle 0 0 0
rhumerus 0 0 0
rradius 40.444 -0 0
rwrist 9.93034 0 0
rhand -23.9528 -22.3491 -0.00330382
rfingers 0 0 0
rthumb 0 0 0
3
root 6.23828 16.8413 -28.13 9.08969 -2.47723 -3.00758
lfemur -20.331 2.24548 -19.9733
ltibia 35.7508 -0 0
lfoot -38.4617 3.95923 0.000321213
ltoes 0 0 0
rfemur -19.2232 0.808896 19.5204
rtibia 0 0 0
rfoot -30.1419 -11.1883 -0.012359
rtoes 0 0 0
lowerback 0 0 0
upperback 0 0 0
thorax 0 0 0
lowerneck 0 0 0
upperneck -1.47699 -3.2588 -1.50308
head 1.13313 -1.6622 -0.930504
lclavicle 0 0 0
lhumerus -41.7214 -10.8932 99.5882
lradius 34.6822 -0 0
lwrist 2.35471 0 0
lhand 0 0 0
lfingers 0 0 0
lthumb 0 0 0
rclavicle 0 0 0
rhumerus 0 0 0
rradius 40.4091 -0 0
rwrist 9.96878 0 0
rhand -24.1212 -22.2123 -0.006478
rfingers 0 0 0
rthumb 0 0 0
4
root 6.23399 16.8442 -28.1261 9.12711 -2.44835 -2.97997
lfemur -20.3089 2.21408 -19.9611
ltibia 35.6538 -0 0
lfoot -38.3559 3.97138 0.000466312
ltoes 0 0 0
rfemur -19.0849 1.13275 19.5187
rtibia 0 0 0
rfoot -30.012 -11.5688 -0.0179427
rtoes 0 0 0
lowerback 0 0 0
upperback 0 0 0
thorax 0 0 0
lowerneck 0 0 0
upperneck -1.53063 -3.22205 -1.42022
head 1.11597 -1.64236 -0.905671
lclavicle 0 0 0
lhumerus -41.719 -10.9375 99.4545
lradius 34.7773 -0 0
lwrist 2.45345 0 0
lhand 0 0 0
lfingers 0 0 0
lthumb 0 0 0
rclavicle 0 0 0
rhumerus 0 0 0
rradius 40.3722 -0 0
rwrist 10.0095 0 0
rhand -24.2999 -22.0673 -0.00940439
rfingers 0 0 0
rthumb 0 0 0
5
root 6.2286 16.8471 -28.1222 9.16625 -2.41816 -2.95107
lfemur -20.2857 2.18123 -19.9484
ltibia 35.5525 -0 0
lfoot -38.2453 3.98408 0.000594033
ltoes 0 0 0
rfemur -18.9402 1.47136 19.5177
rtibia 0 0 0
rfoot -29.8762 -11.9667 -0.0228582
rtoes 0 0 0
lowerback 0 0 0
upperback 0 0 0
thorax 0 0 0
lowerneck 0 0 0
upperneck -1.58666 -3.18354 -1.33362
head 1.09805 -1.62162 -0.879713
lclavicle 0 0 0
lhumerus -41.7165 -10.9837 99.3147
lradius 34.8767 -0 0
lwrist 2.55669 0 0
lhand 0 0 0
lfingers 0 0 0
lthumb 0 0 0
rclavicle 0 0 0
rhumerus 0 0 0
rradius 40.3336 -0 0
rwrist 10.0521 0 0
rhand -24.4867 -21.9156 -0.0119804
rfingers 0 0 0
rthumb 0 0 0
6
root 6.22221 16.8502 -28.1182 9.20668 -2.38702 -2.92121
lfemur -20.2619 2.14731 -19.9354
ltibia 35.4478 -0 0
lfoot -38.1311 3.9972 0.000700192
ltoes 0 0 0
rfemur -18.7908 1.82104 19.5175
rtibia 0 0 0
rfoot -29.7358 -12.3775 -0.0269441
rtoes 0 0 0
lowerback 0 0 0
upperback 0 0 0
thorax 0 0 0
lowerneck 0 0 0
upperneck -1.64445 -3.14368 -1.24423
head 1.07955 -1.60019 -0.852915
lclavicle 0 0 0
lhumerus -41.7137 -11.0315 99.1703
lradius 34.9793 -0 0
lwrist 2.6633 0 0
lhand 0 0 0
lfingers 0 0 0
lthumb 0 0 0
rclavicle 0 0 0
rhumerus 0 0 0
rradius 40.2937 -0 0
rwrist 10.0962 0 0
rhand -24.6796 -21.759 -0.0141215
rfingers 0 0 0
rthumb 0 0 0
7
root 6.21494 16.8533 -28.1144 9.24798 -2.35523 -2.8907
lfemur -20.2375 2.11266 -19.922
ltibia 35.341 -0 0
lfoot -38.0145 4.01059 0.000781609
ltoes 0 0 0
rfemur -18.6383 2.17808 19.5183
rtibia 0 0 0
rfoot -29.5925 -12.7971 -0.0300779
rtoes 0 0 0
lowerback 0 0 0
upperback 0 0 0
thorax 0 0 0
lowerneck 0 0 0
upperneck -1.7034 -3.10289 -1.153
head 1.06067 -1.5783 -0.825558
lclavicle 0 0 0
lhumerus -41.7108 -11.0802 99.0228
lradius 35.0841 -0 0
lwrist 2.77216 0 0
lhand 0 0 0
lfingers 0 0 0
lthumb 0 0 0
rclavicle 0 0 0
rhumerus 0 0 0
rradius 40.2529 -0 0
rwrist 10.1411 0 0
rhand -24.8766 -21.5991 -0.0157636
rfingers 0 0 0
rthumb 0 0 0
8
root 6.20688 16.8564 -28.1105 9.28972 -2.32315 -2.85986
lfemur -20.2129 2.07765 -19.9085
ltibia 35.233 -0 0
lfoot -37.8966 4.02413 0.000836178
ltoes 0 0 0
rfemur -18.4841 2.53881 19.5201
rtibia 0 0 0
rfoot -29.4477 -13.2209 -0.0321785
rtoes 0 0 0
lowerback 0 0 0
upperback 0 0 0
thorax 0 0 0
lowerneck 0 0 0
upperneck -1.76288 -3.06158 -1.06088
head 1.04161 -1.55617 -0.797927
lclavicle 0 0 0
lhumerus -41.7077 -11.1295 98.8737
lradius 35.19 -0 0
lwrist 2.88214 0 0
lhand 0 0 0
lfingers 0 0 0
lthumb 0 0 0
rclavicle 0 0 0
rhumerus 0 0 0
rradius 40.2118 -0 0
rwrist 10.1865 0 0
rhand -25.0756 -21.4375 -0.0168643
rfingers 0 0 0
rthumb 0 0 0
9
root 6.19814 16.8596 -28.1067 9.33148 -2.29108 -2.82898
lfemur -20.1883 2.04264 -19.8951
ltibia 35.125 -0 0
lfoot -37.7788 4.03766 0.000862918
ltoes 0 0 0
rfemur -18.3298 2.89954 19.5229
rtibia 0 0 0
rfoot -29.3029 -13.6448 -0.0332078
rtoes 0 0 0
lowerback 0 0 0
upperback 0 0 0
thorax 0 0 0
lowerneck 0 0 0
upperneck -1.8223 -3.02017 -0.968801
head 1.02256 -1.53403 -0.770303
lclavicle 0 0 0
lhumerus -41.7045 -11.1787 98.7247
lradius 35.2959 -0 0
lwrist 2.99212 0 0
lhand 0 0 0
lfingers 0 0 0
lthumb 0 0 0
rclavicle 0 0 0
rhumerus 0 0 0
rradius 40.1706 -0 0
rwrist 10.2319 0 0
rhand -25.2746 -21.2759 -0.0174036
rfingers 0 0 0
rthumb 0 0 0
10
root 6.18883 16.8628 -28.103 9.37283 -2.25936 -2.79841
lfemur -20.164 2.00798 -19.8818
ltibia 35.0181 -0 0
lfoot -37.6622 4.05105 0.000861979
ltoes 0 0 0
rfemur -18.1771 3.25657 19.5265
rtibia 0 0 0
rfoot -29.1596 -14.0643 -0.0331717
rtoes 0 0 0
lowerback 0 0 0
upperback 0 0 0
thorax 0 0 0
lowerneck 0 0 0
upperneck -1.88104 -2.9791 -0.877711
head 1.00371 -1.51212 -0.74297
lclavicle 0 0 0
lhumerus -41.7012 -11.2275 98.5771
lradius 35.4007 -0 0
lwrist 3.10098 0 0
lhand 0 0 0
lfingers 0 0 0
lthumb 0 0 0
rclavicle 0 0 0
rhumerus 0 0 0
rradius 40.1299 -0 0
rwrist 10.2768 0 0
rhand -25.4716 -21.1159 -0.0173847
rfingers 0 0 0
rthumb 0 0 0
11
root 6.17904 16.866 -28.0994 9.41334 -2.22832 -2.76844
lfemur -20.1401 1.97403 -19.8687
ltibia 34.9135 -0 0
lfoot -37.548 4.06417 0.000834635
ltoes 0 0 0
rfemur -18.0274 3.60621 19.5311
rtibia 0 0 0
rfoot -29.0192 -14.4752 -0.0321191
rtoes 0 0 0
lowerback 0 0 0
upperback 0 0 0
thorax 0 0 0
lowerneck 0 0 0
upperneck -1.9385 -2.93878 -0.788547
head 0.985262 -1.49064 -0.716208
lclavicle 0 0 0
lhumerus -41.6978 -11.2752 98.4326
lradius 35.5034 -0 0
lwrist 3.20759 0 0
lhand 0 0 0
lfingers 0 0 0
lthumb 0 0 0
rclavicle 0 0 0
rhumerus 0 0 0
rradius 40.09 -0 0
rwrist 10.3208 0 0
rhand -25.6645 -20.9593 -0.0168332
rfingers 0 0 0
rthumb 0 0 0
12
root 6.16889 16.8691 -28.0959 9.45258 -2.19828 -2.7394
lfemur -20.1171 1.94115 -19.8562
ltibia 34.8121 -0 0
lfoot -37.4373 4.07687 0.000783234
ltoes 0 0 0
rfemur -17.8824 3.94478 19.5363
rtibia 0 0 0
rfoot -28.8833 -14.873 -0.0301405
rtoes 0 0 0
lowerback 0 0 0
upperback 0 0 0
thorax 0 0 0
lowerneck 0 0 0
upperneck -1.99409 -2.89966 -0.702245
head 0.967408 -1.46984 -0.6903
lclavicle 0 0 0
lhumerus -41.6944 -11.3214 98.2926
lradius 35.6027 -0 0
lwrist 3.31083 0 0
lhand 0 0 0
lfingers 0 0 0
lthumb 0 0 0
rclavicle 0 0 0
rhumerus 0 0 0
rradius 40.0514 -0 0
rwrist 10.3634 0 0
rhand -25.8514 -20.8076 -0.0157964
rfingers 0 0 0
rthumb 0 0 0
13
root 6.15847 16.8721 -28.0925 9.49013 -2.16957 -2.71161
lfemur -20.095 1.90969 -19.8441
ltibia 34.7152 -0 0
lfoot -37.3316 4.08902 0.00071113
ltoes 0 0 0
rfemur -17.7436 4.26859 19.5422
rtibia 0 0 0
rfoot -28.7533 -15.2536 -0.0273651
rtoes 0 0 0
lowerback 0 0 0
upperback 0 0 0
thorax 0 0 0
lowerneck 0 0 0
upperneck -2.04719 -2.86216 -0.61974
head 0.95034 -1.44993 -0.665526
lclavicle 0 0 0
lhumerus -41.6911 -11.3655 98.1586
lradius 35.6978 -0 0
lwrist 3.40957 0 0
lhand 0 0 0
lfingers 0 0 0
lthumb 0 0 0
rclavicle 0 0 0
rhumerus 0 0 0
rradius 40.0144 -0 0
rwrist 10.4042 0 0
rhand -26.03 -20.6625 -0.0143421
rfingers 0 0 0
rthumb 0 0 0
